<svg xmlns="http://www.w3.org/2000/svg" xmlns:xlink="http://www.w3.org/1999/xlink" width="282.56" height="198.254" viewBox="0 0 282.56 198.254">
  <defs>
    <linearGradient id="linear-gradient" x1="0.5" y1="1" x2="0.5" gradientUnits="objectBoundingBox">
      <stop offset="0" stop-color="gray" stop-opacity="0.251"/>
      <stop offset="0.535" stop-color="gray" stop-opacity="0.122"/>
      <stop offset="1" stop-color="gray" stop-opacity="0.102"/>
    </linearGradient>
  </defs>
  <g id="landing-programmer-small" transform="translate(-769 -196)">
    <path id="Path_1" data-name="Path 1" d="M231.383,618.351c-1.926,7.334-8.675,11.917-8.675,11.917s-3.626-7.308-1.7-14.642,8.675-11.918,8.675-11.918S233.309,611.017,231.383,618.351Z" transform="translate(578.137 -265.634)" fill="#3f3d56"/>
    <text id="_" data-name=" " transform="translate(1042.154 353.642)" fill="#fff" font-size="5" font-family="Rubik-Light, Rubik" font-weight="300"><tspan x="-1.29" y="0"> </tspan></text>
    <path id="Path_4" data-name="Path 4" d="M993.047,665.744a5.366,5.366,0,1,0,5.366,5.366,5.366,5.366,0,0,0-5.366-5.366Zm0,8.667a3.3,3.3,0,1,1,3.3-3.3,3.3,3.3,0,0,1-3.3,3.3Z" transform="translate(37.153 -290.476)" fill="#009688"/>
    <path id="Path_16" data-name="Path 16" d="M983.1,650.776v19.089a4.024,4.024,0,0,1-4.024,4.024h2.063a4.025,4.025,0,0,0,4.024-4.024V650.776Z" transform="translate(43.389 -279.635)" opacity="0.1"/>
    <path id="Path_2" data-name="Path 2" d="M233.766,635.859c-5.394,5.329-6,13.465-6,13.465s8.142-.5,13.536-5.834,6-13.465,6-13.465S239.161,630.529,233.766,635.859Z" transform="translate(572.833 -284.693)" fill="#009688"/>
    <rect id="Rectangle_1" data-name="Rectangle 1" width="29.481" height="12.545" rx="6.273" transform="translate(788.073 362.487)" fill="#009688"/>
    <path id="Path_3" data-name="Path 3" d="M950.406,651.305v-4.52H927.8v20.907a4.408,4.408,0,0,0,4.408,4.408H946a4.408,4.408,0,0,0,4.408-4.408v-4.634a5.877,5.877,0,0,0,0-11.753Zm0,9.493v-7.233a3.616,3.616,0,1,1,0,7.233Z" transform="translate(80.519 -296.832)" fill="url(#linear-gradient)"/>
    <path id="Path_6" data-name="Path 6" d="M818.016,531.776h20.637V552.2a2.689,2.689,0,0,1-2.688,2.688H820.7a2.688,2.688,0,0,1-2.689-2.688Z" transform="translate(191.546 -180.722)" fill="#009688"/>
    <rect id="Rectangle_2" data-name="Rectangle 2" width="282.56" height="9.08" transform="translate(769 374.167)" fill="#e0e0e0"/>
    <rect id="Rectangle_5" data-name="Rectangle 5" width="259.859" height="3.715" transform="translate(780.658 383.247)" fill="#e0e0e0"/>
    <rect id="Rectangle_6" data-name="Rectangle 6" width="259.859" height="1.238" transform="translate(780.658 383.247)" opacity="0.1"/>
    <path id="Path_17" data-name="Path 17" d="M944.467,593.591a1.2,1.2,0,0,0-.911.462c-.271.491.22,1.044.668,1.382a8.878,8.878,0,0,1,2.261,2.1,2.638,2.638,0,0,1,.124,2.916c-.8,1.088-2.717,1.322-2.9,2.661-.119.86.624,1.593,1.377,2.025,1.859,1.065,4.255,1.349,5.6,3.015a4.343,4.343,0,0,1,3.045-2.09c1.242-.283,2.532-.262,3.791-.454a1.31,1.31,0,0,0,1.046-.555c.352-.714-.651-1.571-.3-2.288.264-.546,1.037-.5,1.6-.722a2.088,2.088,0,0,0,1.039-2.492,4.693,4.693,0,0,0-1.776-2.305,19.883,19.883,0,0,0-7.149-3.3,18.326,18.326,0,0,0-3.8-.879A19,19,0,0,0,944.467,593.591Z" transform="translate(69.167 -260.193)" fill="#eee"/>
    <g id="Group_100" data-name="Group 100" transform="translate(852.995 196)">
      <g id="Group_99" data-name="Group 99">
        <g id="programmer">
          <path id="Path_126" data-name="Path 126" d="M205.777,336.52v32a5.166,5.166,0,0,1-5.217,5.217H179.065l-30.677-16.347-30.677,16.347H96.217A5.166,5.166,0,0,1,91,368.519v-32A36.56,36.56,0,0,1,127.52,300h41.737A36.56,36.56,0,0,1,205.777,336.52Z" transform="translate(-91 -195.657)" fill="#00c6b4"/>
          <path id="Path_127" data-name="Path 127" d="M313.389,336.52v32a5.166,5.166,0,0,1-5.217,5.217H286.677L256,357.389V300h20.869A36.56,36.56,0,0,1,313.389,336.52Z" transform="translate(-198.611 -195.657)" fill="#009688"/>
          <path id="Path_128" data-name="Path 128" d="M218.193,361.773A5.389,5.389,0,0,0,214.228,360h-73.04a5.391,5.391,0,0,0-3.965,1.773,5.753,5.753,0,0,0-1.252,4.069l5.843,47.024H213.6l5.843-47.024A5.753,5.753,0,0,0,218.193,361.773Z" transform="translate(-120.319 -234.788)" fill="#575f64"/>
          <path id="Path_129" data-name="Path 129" d="M214.909,121.3a10.465,10.465,0,0,1-10.434,10.434h-1.565c-5.843,23.373-32.346,30.781-33.6,31.094a4.505,4.505,0,0,1-2.713,0c-1.252-.313-27.755-7.721-33.6-31.094h-1.566A10.465,10.465,0,0,1,121,121.3a42.909,42.909,0,0,1,4.7-19.721L131.434,90h73.04l5.739,11.582A42.909,42.909,0,0,1,214.909,121.3Z" transform="translate(-110.566 -58.697)" fill="#fbd9cf"/>
          <path id="Path_130" data-name="Path 130" d="M302.954,121.3a10.465,10.465,0,0,1-10.434,10.434h-1.565c-5.843,23.373-32.346,30.781-33.6,31.094a6.108,6.108,0,0,1-1.356.209V90h36.52l5.739,11.582A42.909,42.909,0,0,1,302.954,121.3Z" transform="translate(-198.611 -58.697)" fill="#fdcdbf"/>
          <path id="Path_131" data-name="Path 131" d="M297.737,365.843l-5.843,47.024H256V360h36.52a5.391,5.391,0,0,1,3.965,1.773A5.753,5.753,0,0,1,297.737,365.843Z" transform="translate(-198.611 -234.788)" fill="#474f54"/>
          <path id="Path_132" data-name="Path 132" d="M121,84.711a10.465,10.465,0,0,1,10.434-10.434h15.651A5.214,5.214,0,0,0,152.3,69.06,15.41,15.41,0,0,1,156.567,58.4a5.215,5.215,0,0,0-1.228-8.2,26.146,26.146,0,0,1-11.56-13.048,5.218,5.218,0,0,0-8.447-1.8A46.951,46.951,0,0,0,121,69.06Z" transform="translate(-110.566 -22.106)" fill="#72351c"/>
          <path id="Path_133" data-name="Path 133" d="M234.474,46.954V62.606A10.465,10.465,0,0,0,224.04,52.171H208.389a5.166,5.166,0,0,1-5.217-5.217,14.877,14.877,0,0,0-.939-5.217H187.52A36.253,36.253,0,0,1,153.713,18.99,37.227,37.227,0,0,1,151,5.217a4.892,4.892,0,0,1,1.565-3.652A4.892,4.892,0,0,1,156.217,0h31.3A47.026,47.026,0,0,1,234.474,46.954Z" transform="translate(-130.131 0)" fill="#a74e2a"/>
          <path id="Path_134" data-name="Path 134" d="M302.954,46.954V62.606A10.465,10.465,0,0,0,292.52,52.171H276.869a5.166,5.166,0,0,1-5.217-5.217,14.876,14.876,0,0,0-.939-5.217H256V0A47.026,47.026,0,0,1,302.954,46.954Z" transform="translate(-198.611)" fill="#72351c"/>
          <ellipse id="Ellipse_20" data-name="Ellipse 20" cx="5.419" cy="4.742" rx="5.419" ry="4.742" transform="translate(51.485 146.32)" fill="#f0f7ff"/>
          <path id="Path_135" data-name="Path 135" d="M261.217,425.217A5.166,5.166,0,0,1,256,430.434V420A5.166,5.166,0,0,1,261.217,425.217Z" transform="translate(-198.611 -273.92)" fill="#dfe7f4"/>
        </g>
      </g>
    </g>
  </g>
</svg>
