<svg xmlns="http://www.w3.org/2000/svg" xmlns:xlink="http://www.w3.org/1999/xlink" width="457.502" height="321" viewBox="0 0 457.502 321">
  <defs>
    <linearGradient id="linear-gradient" x1="0.5" y1="1" x2="0.5" gradientUnits="objectBoundingBox">
      <stop offset="0" stop-color="gray" stop-opacity="0.251"/>
      <stop offset="0.535" stop-color="gray" stop-opacity="0.122"/>
      <stop offset="1" stop-color="gray" stop-opacity="0.102"/>
    </linearGradient>
  </defs>
  <g id="landing-programmer" transform="translate(-769 -196)">
    <path id="Path_1" data-name="Path 1" d="M238.156,627.416c-3.118,11.875-14.045,19.3-14.045,19.3s-5.871-11.832-2.753-23.707,14.045-19.3,14.045-19.3S241.274,615.541,238.156,627.416Z" transform="translate(596.452 -177.67)" fill="#3f3d56"/>
    <text id="_" data-name=" " transform="translate(1212.654 455.148)" fill="#fff" font-size="13" font-family="Rubik-Light, Rubik" font-weight="300"><tspan x="-3.354" y="0"> </tspan></text>
    <path id="Path_4" data-name="Path 4" d="M996.369,665.744a8.688,8.688,0,1,0,8.688,8.688,8.688,8.688,0,0,0-8.688-8.687Zm0,14.034a5.346,5.346,0,1,1,5.346-5.346,5.346,5.346,0,0,1-5.346,5.346Z" transform="translate(195.548 -179.485)" fill="#009688"/>
    <path id="Path_16" data-name="Path 16" d="M985.587,650.776v30.908a6.516,6.516,0,0,1-6.516,6.516h3.341a6.516,6.516,0,0,0,6.516-6.516V650.776Z" transform="translate(200.314 -171.2)" opacity="0.1"/>
    <path id="Path_2" data-name="Path 2" d="M237.48,639.471c-8.734,8.629-9.711,21.8-9.711,21.8s13.183-.818,21.917-9.446,9.711-21.8,9.711-21.8S246.214,630.842,237.48,639.471Z" transform="translate(592.398 -192.237)" fill="#009688"/>
    <rect id="Rectangle_1" data-name="Rectangle 1" width="47.734" height="20.312" rx="10.156" transform="translate(799.881 465.565)" fill="#009688"/>
    <path id="Path_3" data-name="Path 3" d="M964.4,654.1v-7.319H927.8v33.851a7.137,7.137,0,0,0,7.136,7.136h22.324a7.136,7.136,0,0,0,7.137-7.136v-7.5a9.515,9.515,0,0,0,0-19.03Zm0,15.37V657.763a5.855,5.855,0,1,1,0,11.711Z" transform="translate(228.692 -201.514)" fill="url(#linear-gradient)"/>
    <path id="Path_6" data-name="Path 6" d="M818.016,531.776H851.43v33.071a4.353,4.353,0,0,1-4.353,4.353H822.369a4.353,4.353,0,0,1-4.353-4.353Z" transform="translate(340.486 -84.723)" fill="#009688"/>
    <rect id="Rectangle_2" data-name="Rectangle 2" width="457.502" height="14.702" transform="translate(769 484.476)" fill="#e0e0e0"/>
    <rect id="Rectangle_5" data-name="Rectangle 5" width="420.747" height="6.014" transform="translate(787.876 499.178)" fill="#e0e0e0"/>
    <rect id="Rectangle_6" data-name="Rectangle 6" width="420.747" height="2.005" transform="translate(787.876 499.178)" opacity="0.1"/>
    <path id="Path_17" data-name="Path 17" d="M945.079,593.919a1.95,1.95,0,0,0-1.476.749c-.438.795.356,1.691,1.081,2.237a14.375,14.375,0,0,1,3.66,3.407,4.271,4.271,0,0,1,.2,4.722c-1.3,1.762-4.4,2.141-4.7,4.309-.193,1.392,1.011,2.58,2.23,3.278,3.01,1.724,6.89,2.184,9.07,4.882a7.032,7.032,0,0,1,4.93-3.384c2.011-.458,4.1-.424,6.139-.734a2.121,2.121,0,0,0,1.694-.9c.57-1.156-1.054-2.543-.494-3.7.427-.884,1.68-.815,2.6-1.169a3.38,3.38,0,0,0,1.682-4.035,7.6,7.6,0,0,0-2.875-3.732,32.192,32.192,0,0,0-11.575-5.351,29.666,29.666,0,0,0-6.153-1.424A30.755,30.755,0,0,0,945.079,593.919Z" transform="translate(220.016 -175.453)" fill="#eee"/>
    <g id="Group_100" data-name="Group 100" transform="translate(905 196)">
      <g id="Group_99" data-name="Group 99">
        <g id="programmer">
          <path id="Path_126" data-name="Path 126" d="M276.84,359.131v51.81a8.365,8.365,0,0,1-8.447,8.447h-34.8L183.92,392.92l-49.67,26.468h-34.8A8.365,8.365,0,0,1,91,410.941v-51.81A59.2,59.2,0,0,1,150.131,300h67.578A59.2,59.2,0,0,1,276.84,359.131Z" transform="translate(-91 -131.055)" fill="#00c6b4"/>
          <path id="Path_127" data-name="Path 127" d="M348.92,359.131v51.81a8.365,8.365,0,0,1-8.447,8.447h-34.8L256,392.92V300h33.789A59.2,59.2,0,0,1,348.92,359.131Z" transform="translate(-163.08 -131.055)" fill="#009688"/>
          <path id="Path_128" data-name="Path 128" d="M269.109,362.872a8.726,8.726,0,0,0-6.42-2.872H144.428a8.728,8.728,0,0,0-6.42,2.872,9.315,9.315,0,0,0-2.027,6.589l9.461,76.139H261.676l9.461-76.138A9.315,9.315,0,0,0,269.109,362.872Z" transform="translate(-110.639 -157.266)" fill="#575f64"/>
          <path id="Path_129" data-name="Path 129" d="M273.051,140.684a16.944,16.944,0,0,1-16.895,16.895h-2.535c-9.461,37.844-52.372,49.839-54.4,50.345a7.3,7.3,0,0,1-4.393,0c-2.027-.506-44.939-12.5-54.4-50.345h-2.535A16.944,16.944,0,0,1,121,140.684a69.476,69.476,0,0,1,7.6-31.931L137.895,90H256.156l9.292,18.753A69.476,69.476,0,0,1,273.051,140.684Z" transform="translate(-104.105 -39.316)" fill="#fbd9cf"/>
          <path id="Path_130" data-name="Path 130" d="M332.025,140.684a16.944,16.944,0,0,1-16.895,16.895H312.6c-9.461,37.844-52.372,49.839-54.4,50.345a9.89,9.89,0,0,1-2.2.338V90h59.131l9.292,18.753A69.476,69.476,0,0,1,332.025,140.684Z" transform="translate(-163.08 -39.316)" fill="#fdcdbf"/>
          <path id="Path_131" data-name="Path 131" d="M323.578,369.461,314.117,445.6H256V360h59.131a8.728,8.728,0,0,1,6.42,2.872A9.315,9.315,0,0,1,323.578,369.461Z" transform="translate(-163.08 -157.266)" fill="#474f54"/>
          <path id="Path_132" data-name="Path 132" d="M121,116.174a16.944,16.944,0,0,1,16.895-16.895h25.342a8.442,8.442,0,0,0,8.447-8.447,24.952,24.952,0,0,1,6.9-17.266A8.443,8.443,0,0,0,176.6,60.285a42.334,42.334,0,0,1-18.717-21.127,8.449,8.449,0,0,0-13.677-2.911A76.02,76.02,0,0,0,121,90.832Z" transform="translate(-104.105 -14.807)" fill="#72351c"/>
          <path id="Path_133" data-name="Path 133" d="M286.156,76.025v25.342a16.944,16.944,0,0,0-16.895-16.895H243.92a8.365,8.365,0,0,1-8.447-8.447,24.086,24.086,0,0,0-1.521-8.447H210.131a58.7,58.7,0,0,1-54.738-36.83A60.276,60.276,0,0,1,151,8.447a7.921,7.921,0,0,1,2.535-5.913A7.921,7.921,0,0,1,159.447,0h50.684A76.141,76.141,0,0,1,286.156,76.025Z" transform="translate(-117.211 0)" fill="#a74e2a"/>
          <path id="Path_134" data-name="Path 134" d="M332.025,76.025v25.342a16.944,16.944,0,0,0-16.895-16.895H289.789a8.365,8.365,0,0,1-8.447-8.447,24.086,24.086,0,0,0-1.521-8.447H256V0A76.141,76.141,0,0,1,332.025,76.025Z" transform="translate(-163.08)" fill="#72351c"/>
          <circle id="Ellipse_20" data-name="Ellipse 20" cx="8.5" cy="8.5" r="8.5" transform="translate(84 236)" fill="#f0f7ff"/>
          <path id="Path_135" data-name="Path 135" d="M264.447,428.447A8.365,8.365,0,0,1,256,436.895V420A8.365,8.365,0,0,1,264.447,428.447Z" transform="translate(-163.08 -183.477)" fill="#dfe7f4"/>
        </g>
      </g>
    </g>
  </g>
</svg>
