<svg xmlns="http://www.w3.org/2000/svg" width="150" height="49" viewBox="0 0 150 49">
  <g id="Group_58" data-name="Group 58" transform="translate(-1162 -451)">
    <path id="Path_18" data-name="Path 18" d="M82.994,143.376h-.784v7.733a.818.818,0,1,1-1.635,0v-7.733H79.79a6.46,6.46,0,0,0-6.46,6.46v4.748a.581.581,0,0,0,.581.581h14.96a.581.581,0,0,0,.581-.581v-4.748A6.46,6.46,0,0,0,82.994,143.376Z" transform="translate(1174.601 327.252)" fill="#009688"/>
    <path id="Path_19" data-name="Path 19" d="M219.258.794a.818.818,0,0,0-1.635.046,2.993,2.993,0,0,1-.881,2.52c-1.26,1.045-3.518.57-3.539.566l-.029-.006c-2.192-.405-3.9-.086-5.062.947a4.692,4.692,0,0,0-1.455,2.921h1.635a2.767,2.767,0,0,1,.9-1.7,4.354,4.354,0,0,1,3.669-.565c.271.058,3.086.608,4.914-.9A4.521,4.521,0,0,0,219.258.794Z" transform="translate(1049.299 462.841)" fill="#009688"/>
    <path id="Path_20" data-name="Path 20" d="M89.647,391.049a.55.55,0,0,0-.55-.548h-15a.549.549,0,0,0-.549.54s0,.007,0,.01a.54.54,0,0,0,.007.085A6.46,6.46,0,0,0,80,397.1h3.2a6.46,6.46,0,0,0,6.442-5.984.552.552,0,0,0,0-.066Z" transform="translate(1174.394 93.552)" fill="#009688"/>
    <text id="jeriC" transform="translate(1163 490)" fill="#fff" font-size="38" font-family="Quicksand-Bold, Quicksand" font-weight="700"><tspan x="0" y="0">jeriC</tspan></text>
    <text id="de" transform="translate(1266 489)" fill="#fff" font-size="38" font-family="Quicksand-Bold, Quicksand" font-weight="700"><tspan x="0" y="0">de</tspan></text>
  </g>
</svg>
