<svg xmlns="http://www.w3.org/2000/svg" width="80.965" height="109.16" viewBox="0 0 80.965 109.16">
  <g id="Group_101" data-name="Group 101" transform="translate(-5087.932 642.16)">
    <path id="Path_136" data-name="Path 136" d="M111.259,143.376h-3.078v30.35a3.209,3.209,0,1,1-6.418,0v-30.35H98.684A25.354,25.354,0,0,0,73.33,168.73v18.634a2.282,2.282,0,0,0,2.282,2.282h58.719a2.282,2.282,0,0,0,2.282-2.282V168.73A25.354,25.354,0,0,0,111.259,143.376Z" transform="translate(5014.602 -754.968)" fill="#009688"/>
    <path id="Path_137" data-name="Path 137" d="M256.112,3.118A3.209,3.209,0,0,0,249.7,3.3c.129,4.552-1.035,7.879-3.457,9.889-4.945,4.1-13.809,2.238-13.89,2.22l-.113-.023c-8.605-1.59-15.289-.339-19.867,3.716a18.416,18.416,0,0,0-5.71,11.466h6.416a10.861,10.861,0,0,1,3.55-6.66c3.1-2.579,7.86-3.418,14.4-2.217,1.065.226,12.114,2.384,19.286-3.537C254.347,14.817,256.3,9.759,256.112,3.118Z" transform="translate(4912.772 -642.159)" fill="#009688"/>
    <path id="Path_138" data-name="Path 138" d="M136.733,392.653a2.157,2.157,0,0,0-2.157-2.153H75.707a2.157,2.157,0,0,0-2.156,2.119c0,.013,0,.026,0,.039a2.122,2.122,0,0,0,.028.332A25.354,25.354,0,0,0,98.857,416.4h12.575a25.355,25.355,0,0,0,25.285-23.488,2.163,2.163,0,0,0,.017-.259S136.733,392.654,136.733,392.653Z" transform="translate(5014.43 -949.404)" fill="#009688"/>
  </g>
</svg>
